<svg width="37" height="31" viewBox="0 0 37 31" fill="none" xmlns="http://www.w3.org/2000/svg">
<path d="M15.8294 0.767996L10.2614 22.08L8.72538 14.88C10.9654 14.88 12.8214 15.584 14.2934 16.992C15.7654 18.4 16.5014 20.288 16.5014 22.656C16.5014 25.024 15.7654 26.944 14.2934 28.416C12.8214 29.824 10.9974 30.528 8.82138 30.528C6.51738 30.528 4.62938 29.792 3.15738 28.32C1.68538 26.848 0.949375 24.96 0.949375 22.656C0.949375 21.888 0.981375 21.184 1.04538 20.544C1.17338 19.84 1.39738 19.008 1.71738 18.048C2.03738 17.088 2.48538 15.872 3.06138 14.4L8.14938 0.767996H15.8294ZM36.1814 0.767996L30.6134 22.08L29.0774 14.88C31.3174 14.88 33.1734 15.584 34.6454 16.992C36.1174 18.4 36.8534 20.288 36.8534 22.656C36.8534 25.024 36.1174 26.944 34.6454 28.416C33.1734 29.824 31.3494 30.528 29.1734 30.528C26.8694 30.528 24.9814 29.792 23.5094 28.32C22.0374 26.848 21.3014 24.96 21.3014 22.656C21.3014 21.888 21.3334 21.184 21.3974 20.544C21.5254 19.84 21.7494 19.008 22.0694 18.048C22.3894 17.088 22.8374 15.872 23.4134 14.4L28.5014 0.767996H36.1814Z" fill="#D9D9D9"/>
</svg>
